<svg xmlns="http://www.w3.org/2000/svg" xmlns:xlink="http://www.w3.org/1999/xlink" viewBox="0 0 74.375 85" fill="#fff" fill-rule="evenodd" stroke="#000" stroke-linecap="round" stroke-linejoin="round"><use xlink:href="#A" x="2.188" y="2.5"/><symbol id="A" overflow="visible"><path d="M70 30.976c0-2.708-2.258-4.889-5.062-4.889s-5.062 2.18-5.062 4.889v20.671c0 2.708 2.258 4.889 5.062 4.889S70 54.355 70 51.647zm-59.876 0c0-2.708-2.258-4.889-5.062-4.889S0 28.267 0 30.976v20.671c0 2.708 2.258 4.889 5.062 4.889s5.062-2.18 5.062-4.889zm21.405 33.241v10.894c0 2.708-2.258 4.889-5.062 4.889s-5.062-2.18-5.062-4.889V64.217h-3.471q-5.496-.279-5.785-5.587V26.785h45.703V58.63q-.145 5.308-5.785 5.587h-3.471v10.894c0 2.708-2.258 4.889-5.062 4.889s-5.062-2.18-5.062-4.889V64.217zm-7.778-56.91c-6.456 3.055-11.318 8.987-11.602 17.803l45.703-.14c-.375-8.694-5.22-14.57-11.626-17.622l3.622-6.31c.194-.338.069-.762-.282-.949s-.789-.066-.983.272l-3.678 6.407c-6.21-2.511-13.627-2.525-19.832-.038L21.417.36c-.194-.338-.633-.46-.983-.272s-.476.611-.282.949zm-1.189 7.886c0-1.006.839-1.816 1.88-1.816s1.88.81 1.88 1.816-.839 1.816-1.88 1.816-1.88-.81-1.88-1.816zm21.116 0c0-1.006.839-1.816 1.88-1.816s1.88.81 1.88 1.816-.839 1.816-1.88 1.816-1.88-.81-1.88-1.816z" fill="#77c159" stroke="none"/></symbol></svg>