<svg xmlns="http://www.w3.org/2000/svg" xmlns:xlink="http://www.w3.org/1999/xlink" viewBox="0 0 82 81" fill="#fff" fill-rule="evenodd" stroke="#000" stroke-linecap="round" stroke-linejoin="round"><use xlink:href="#A" x=".5" y=".5"/><symbol id="A" overflow="visible"><path d="M78.542 36.642L43.568 1.482c-1.976-1.975-5.137-1.975-6.915 0l-7.706 7.506 9.089 9.086c.593-.198 1.383-.395 2.173-.395 3.359 0 6.125 2.765 6.125 6.123 0 .79-.197 1.58-.395 2.173l8.891 8.889c.593-.198 1.383-.395 2.174-.395a6.16 6.16 0 0 1 6.125 6.123 6.16 6.16 0 0 1-6.125 6.124 6.16 6.16 0 0 1-6.125-6.124c0-.79.198-1.58.395-2.173l-8.299-8.296v21.728c1.976.988 3.359 3.16 3.359 5.333a6.16 6.16 0 0 1-6.125 6.124 6.16 6.16 0 0 1-6.125-6.124c0-2.568 1.581-4.741 3.952-5.728V29.333c-2.371-.79-3.952-3.16-3.952-5.728 0-.79.198-1.58.395-2.173l-9.089-9.086L1.482 36.642c-1.976 1.975-1.976 5.136 0 6.914l34.973 34.963c1.976 1.975 5.137 1.975 6.916 0l34.973-34.963c2.173-1.975 2.173-5.136.197-6.914z" fill="#0078d7" stroke="none"/></symbol></svg>