<?xml version="1.0" encoding="UTF-8" standalone="no"?>
<!DOCTYPE svg PUBLIC "-//W3C//DTD SVG 1.1//EN" "http://www.w3.org/Graphics/SVG/1.1/DTD/svg11.dtd">
<!-- Created with Vectornator (http://vectornator.io/) -->
<svg height="100%" stroke-miterlimit="10" style="fill-rule:nonzero;clip-rule:evenodd;stroke-linecap:round;stroke-linejoin:round;" version="1.1" viewBox="0 0 782.65 1235.03" width="100%" xml:space="preserve" xmlns="http://www.w3.org/2000/svg" xmlns:vectornator="http://vectornator.io" xmlns:xlink="http://www.w3.org/1999/xlink">
<defs/>
<clipPath id="ArtboardFrame">
<rect height="1235.03" width="782.65" x="0" y="0"/>
</clipPath>
<g clip-path="url(#ArtboardFrame)" id="1" vectornator:layerName="1">
<g opacity="1">
<clipPath id="ClipPath">
<path d="M-942.188-406.594L-942.188 1641.44L1789.81 1641.44L1789.81-406.594L-942.188-406.594Z"/>
</clipPath>
<g clip-path="url(#ClipPath)">
<g opacity="1">
<path d="M228.255 563.894C228.255 428.77 332.515 319.232 461.135 319.232C589.745 319.232 694.015 428.77 694.015 563.894C694.015 699.014 589.745 808.544 461.135 808.544C332.515 808.544 228.255 699.014 228.255 563.894Z" fill="none" opacity="1" stroke="#000000" stroke-linecap="butt" stroke-linejoin="miter" stroke-width="85.8209"/>
<path d="M229.095 564.514C229.095 429.393 333.355 319.856 461.975 319.856C590.585 319.856 694.855 429.393 694.855 564.514C694.855 699.634 590.585 809.174 461.975 809.174C333.355 809.174 229.095 699.634 229.095 564.514Z" fill="none" opacity="1" stroke="#000000" stroke-linecap="butt" stroke-linejoin="miter" stroke-width="87.6954"/>
<g opacity="1">
<path d="M32.697 721.964C19.35 730.974 245.105 1212.54 258.645 1212.56C274.955 1212.57 253.005 1073.74 367.015 977.464C465.415 894.364 641.345 765.584 641.345 765.584L683.985 713.594L715.245 644.084L704.585 489.636C704.585 489.636 703.015 578.854 688.205 616.634C673.395 654.394 669.145 661.504 641.185 694.404C613.235 727.294 509.915 785.224 463.645 792.154C417.365 799.084 420.855 797.974 274.905 805.884C128.945 813.794 41.839 715.794 32.697 721.964Z" fill="#a7a7a7" fill-rule="evenodd" opacity="1" stroke="none"/>
<g opacity="1">
<path d="M32.697 721.964C19.35 730.974 245.105 1212.54 258.645 1212.56C274.955 1212.57 253.005 1073.74 367.015 977.464C465.415 894.364 641.345 765.584 641.345 765.584L683.985 713.594L715.245 644.084L704.585 489.636C704.585 489.636 703.015 578.854 688.205 616.634C673.395 654.394 669.145 661.504 641.185 694.404C613.235 727.294 509.915 785.224 463.645 792.154C417.365 799.084 420.855 797.974 274.905 805.884C128.945 813.794 41.839 715.794 32.697 721.964Z" fill="#e4e2e2" fill-rule="nonzero" opacity="1" stroke="none"/>
<path d="M32.697 721.964C19.35 730.974 245.105 1212.54 258.645 1212.56C274.955 1212.57 253.005 1073.74 367.015 977.464C465.415 894.364 641.345 765.584 641.345 765.584L683.985 713.594L715.245 644.084L704.585 489.636C704.585 489.636 703.015 578.854 688.205 616.634C673.395 654.394 669.145 661.504 641.185 694.404C613.235 727.294 509.915 785.224 463.645 792.154C417.365 799.084 420.855 797.974 274.905 805.884C128.945 813.794 41.839 715.794 32.697 721.964Z" fill="none" opacity="1" stroke="#000000" stroke-linecap="butt" stroke-linejoin="miter" stroke-width="5"/>
</g>
</g>
<g opacity="1">
<path d="M332.975 66.322C349.485 52.422 382.265 30.002 382.265 30.002L394.085 42.522C394.085 42.522 386.765 67.844 392.005 85.516C399.815 111.821 429.905 144.504 429.905 144.504L407.905 163.018C407.905 163.018 364.995 131.706 343.055 123.426C326.645 117.232 295.785 126.043 295.785 126.043L284.055 111.665C284.055 111.665 315.485 81.039 332.975 66.322Z" fill="#e4e2e2" fill-rule="nonzero" opacity="1" stroke="none"/>
<path d="M332.975 66.322C349.485 52.422 382.265 30.002 382.265 30.002L394.085 42.522C394.085 42.522 386.765 67.844 392.005 85.516C399.815 111.821 429.905 144.504 429.905 144.504L407.905 163.018C407.905 163.018 364.995 131.706 343.055 123.426C326.645 117.232 295.785 126.043 295.785 126.043L284.055 111.665C284.055 111.665 315.485 81.039 332.975 66.322Z" fill="none" opacity="1" stroke="#000000" stroke-linecap="butt" stroke-linejoin="miter" stroke-width="6"/>
</g>
<g opacity="1">
<path d="M423.555 119.015L641.505 349.684L599.055 386.566L381.105 155.898L423.555 119.015Z" fill="#e4e2e2" fill-rule="evenodd" opacity="1" stroke="none"/>
<path d="M423.555 119.015L641.505 349.684L599.055 386.566L381.105 155.898L423.555 119.015Z" fill="none" opacity="1" stroke="#000000" stroke-linecap="butt" stroke-linejoin="miter" stroke-width="6"/>
</g>
<path d="M229.615 565.034C229.615 429.918 333.885 320.38 462.495 320.38C591.115 320.38 695.375 429.918 695.375 565.034C695.375 700.154 591.115 809.704 462.495 809.704C333.885 809.704 229.615 700.154 229.615 565.034Z" fill="none" opacity="1" stroke="#000000" stroke-linecap="butt" stroke-linejoin="miter" stroke-width="106"/>
<path d="M228.475 564.424C228.475 429.302 332.735 319.764 461.345 319.764C589.965 319.764 694.225 429.302 694.225 564.424C694.225 699.544 589.965 809.084 461.345 809.084C332.735 809.084 228.475 699.544 228.475 564.424Z" fill="none" opacity="1" stroke="#e4e2e3" stroke-linecap="butt" stroke-linejoin="miter" stroke-width="91"/>
</g>
<g opacity="1">
<g opacity="1">
<path d="M635.615 656.834C635.615 610.914 609.875 610.994 609.875 610.994L422.365 608.774C422.365 608.774 395.385 609.394 385.445 594.254C373.115 575.474 374.995 565.804 374.995 565.804L380.455 321.717C380.455 321.717 382.585 259.259 335.655 259.285C290.295 259.309 287.955 306.768 287.955 306.768L284.055 574.174C284.055 574.174 288.155 633.234 323.715 663.894C368.655 702.664 403.665 698.684 403.665 698.684L582.955 700.714C582.955 700.714 635.615 705.364 635.615 656.834" fill="#000000" fill-rule="nonzero" opacity="1" stroke="none"/>
<path d="M635.615 656.834C635.615 610.914 609.875 610.994 609.875 610.994L422.365 608.774C422.365 608.774 395.385 609.394 385.445 594.254C373.115 575.474 374.995 565.804 374.995 565.804L380.455 321.717C380.455 321.717 382.585 259.259 335.655 259.285C290.295 259.309 287.955 306.768 287.955 306.768L284.055 574.174C284.055 574.174 288.155 633.234 323.715 663.894C368.655 702.664 403.665 698.684 403.665 698.684L582.955 700.714C582.955 700.714 635.615 705.364 635.615 656.834" fill="none" opacity="1" stroke="#000000" stroke-linecap="butt" stroke-linejoin="miter" stroke-width="93"/>
</g>
<path d="M635.615 656.834C635.615 610.914 609.875 610.994 609.875 610.994L422.365 608.774C422.365 608.774 395.385 609.394 385.445 594.254C373.115 575.474 374.995 565.804 374.995 565.804L380.455 321.717C380.455 321.717 382.585 259.259 335.655 259.285C290.295 259.309 287.955 306.768 287.955 306.768L284.055 574.174C284.055 574.174 288.155 633.234 323.715 663.894C368.655 702.664 403.665 698.684 403.665 698.684L582.955 700.714C582.955 700.714 635.615 705.364 635.615 656.834" fill="none" opacity="1" stroke="#d8bc3a" stroke-linecap="butt" stroke-linejoin="miter" stroke-width="81"/>
<g opacity="1">
<path d="M570.385 658.664C570.385 618.154 601.565 585.324 640.005 585.324C678.445 585.324 709.605 618.154 709.605 658.664C709.605 699.184 678.445 732.014 640.005 732.014C601.565 732.014 570.385 699.184 570.385 658.664Z" fill="#d8bc3a" fill-rule="evenodd" opacity="1" stroke="none"/>
<path d="M570.385 658.664C570.385 618.154 601.565 585.324 640.005 585.324C678.445 585.324 709.605 618.154 709.605 658.664C709.605 699.184 678.445 732.014 640.005 732.014C601.565 732.014 570.385 699.184 570.385 658.664Z" fill="none" opacity="1" stroke="#2f2f2f" stroke-linecap="butt" stroke-linejoin="miter" stroke-width="4.62151"/>
<path d="M570.385 658.664C570.385 618.154 601.565 585.324 640.005 585.324C678.445 585.324 709.605 618.154 709.605 658.664C709.605 699.184 678.445 732.014 640.005 732.014C601.565 732.014 570.385 699.184 570.385 658.664ZM570.385 658.664C570.385 618.154 601.565 585.324 640.005 585.324C678.445 585.324 709.605 618.154 709.605 658.664C709.605 699.184 678.445 732.014 640.005 732.014C601.565 732.014 570.385 699.184 570.385 658.664Z" fill="none" opacity="1" stroke="#000000" stroke-linecap="butt" stroke-linejoin="miter" stroke-width="8"/>
</g>
</g>
</g>
</g>
</g>
</svg>
